<?xml version="1.0" standalone="no"?>
<!DOCTYPE svg PUBLIC "-//W3C//DTD SVG 20010904//EN"
 "http://www.w3.org/TR/2001/REC-SVG-20010904/DTD/svg10.dtd">
<svg version="1.0" xmlns="http://www.w3.org/2000/svg"
 width="105.000000pt" height="105.000000pt" viewBox="0 0 105.000000 105.000000"
 preserveAspectRatio="xMidYMid meet">

<g transform="translate(0.000000,105.000000) scale(0.100000,-0.100000)"
fill="#000000" stroke="none">
<path d="M697 775 l-169 -92 -41 15 c-52 18 -187 20 -246 3 -24 -7 -54 -23
-67 -36 -21 -21 -24 -33 -24 -105 0 -79 -1 -81 -30 -98 -33 -19 -35 -24 -20
-52 6 -12 17 -16 30 -13 17 4 20 0 20 -25 0 -25 -6 -32 -31 -41 -23 -8 -30
-15 -25 -27 3 -8 6 -20 6 -26 0 -5 12 -7 28 -3 21 4 33 1 43 -11 42 -52 197
-71 306 -39 71 21 87 43 93 128 l5 70 178 60 c166 55 177 60 171 80 -4 12 -8
24 -11 27 -2 2 -80 -21 -174 -52 l-170 -57 3 81 3 80 155 85 c85 46 158 87
163 92 8 8 -12 52 -23 50 -3 -1 -81 -43 -173 -94z m-252 -126 c103 -26 63 -72
-68 -78 -76 -3 -167 18 -167 39 0 40 138 63 235 39z m-91 -139 c28 0 75 7 104
14 l52 14 0 -38 0 -38 -149 -50 c-82 -28 -152 -47 -155 -44 -8 7 -8 157 0 164
3 3 26 -1 51 -8 25 -8 69 -14 97 -14z m156 -160 c0 -46 -2 -51 -32 -67 -56
-29 -258 -18 -258 15 0 6 256 98 283 101 4 1 7 -21 7 -49z"/>
<path d="M317 623 c-31 -8 -7 -23 36 -23 52 0 79 14 45 23 -25 7 -53 7 -81 0z"/>
</g>
</svg>
